<?xml version="1.0" standalone="no"?>
<!DOCTYPE svg PUBLIC "-//W3C//DTD SVG 20010904//EN"
 "http://www.w3.org/TR/2001/REC-SVG-20010904/DTD/svg10.dtd">
<svg version="1.0" xmlns="http://www.w3.org/2000/svg"
 width="1024.000000pt" height="1002.000000pt" viewBox="0 0 1024.000000 1002.000000"
 preserveAspectRatio="xMidYMid meet">

<g transform="translate(0.000000,1002.000000) scale(0.100000,-0.100000)"
fill="#000000" stroke="none">
<path d="M9586 10010 c-479 -75 -1204 -551 -2182 -1431 -1064 -957 -2585
-2552 -3861 -4049 l-193 -226 -457 230 c-926 463 -1491 685 -1973 773 -128 23
-388 23 -480 0 -145 -38 -273 -124 -345 -233 -60 -91 -86 -177 -87 -297 -2
-138 9 -158 176 -316 235 -223 727 -723 888 -901 679 -758 1324 -1695 2113
-3070 183 -319 197 -341 242 -397 50 -61 105 -84 198 -84 90 0 147 23 194 77
42 47 57 80 162 337 945 2318 2093 4317 3461 6028 614 769 1085 1275 2156
2319 211 205 421 418 467 474 128 152 186 290 172 408 -19 158 -155 295 -340
342 -75 19 -236 27 -311 16z"/>
</g>
</svg>
